<svg width="24" height="24" viewBox="0 0 24 24" fill="none" xmlns="http://www.w3.org/2000/svg">
<rect width="24" height="24" rx="3" fill="#67B3C0"/>
<path d="M4.23047 12.3516C4.23047 12.1641 4.21745 11.306 4.19141 9.77734C4.18359 9.71745 4.15234 9.66667 4.09766 9.625C4.04557 9.58073 3.96875 9.54688 3.86719 9.52344C3.76562 9.5 3.68229 9.48307 3.61719 9.47266C3.55469 9.46224 3.46615 9.45182 3.35156 9.44141C3.34115 9.39453 3.33594 9.36198 3.33594 9.34375C3.33594 9.32812 3.34115 9.29948 3.35156 9.25781C3.41927 9.26042 3.58073 9.26693 3.83594 9.27734C4.09115 9.28516 4.28776 9.28906 4.42578 9.28906C4.54297 9.28906 4.76432 9.28385 5.08984 9.27344C5.41536 9.26302 5.64974 9.25781 5.79297 9.25781C6.45964 9.25781 6.96875 9.41276 7.32031 9.72266C7.67188 10.0326 7.84766 10.4453 7.84766 10.9609C7.84766 11.4505 7.6901 11.8503 7.375 12.1602C7.0599 12.4701 6.61198 12.625 6.03125 12.625C5.68229 12.625 5.36849 12.5521 5.08984 12.4062C5.08984 13.0417 5.09766 13.7279 5.11328 14.4648C5.11589 14.5326 5.14583 14.5911 5.20312 14.6406C5.26042 14.6875 5.34245 14.724 5.44922 14.75C5.55859 14.776 5.64974 14.7956 5.72266 14.8086C5.79818 14.819 5.89583 14.8294 6.01562 14.8398C6.02604 14.8919 6.03125 14.9271 6.03125 14.9453C6.03125 14.9661 6.02604 14.9922 6.01562 15.0234C5.57292 15.0078 5.11979 15 4.65625 15C4.1875 15 3.73438 15.0078 3.29688 15.0234C3.28646 14.9922 3.28125 14.9661 3.28125 14.9453C3.28125 14.901 3.28646 14.8659 3.29688 14.8398C3.41667 14.8294 3.51302 14.819 3.58594 14.8086C3.66146 14.7956 3.7526 14.776 3.85938 14.75C3.96875 14.724 4.05208 14.6875 4.10938 14.6406C4.16667 14.5911 4.19661 14.5326 4.19922 14.4648C4.22005 13.7956 4.23047 13.0911 4.23047 12.3516ZM5.11328 9.52734C5.09766 10.4648 5.08984 11.3372 5.08984 12.1445C5.30339 12.2409 5.51562 12.2891 5.72656 12.2891C6.09375 12.2891 6.36979 12.1706 6.55469 11.9336C6.73958 11.6966 6.83203 11.3698 6.83203 10.9531C6.83203 9.99219 6.35677 9.51172 5.40625 9.51172C5.34635 9.51172 5.2487 9.51693 5.11328 9.52734ZM12.9153 10.9102C12.8164 10.4336 12.6341 10.0638 12.3684 9.80078C12.1054 9.53776 11.789 9.40625 11.4192 9.40625C11.0572 9.40625 10.776 9.49219 10.5755 9.66406C10.3776 9.83594 10.2786 10.0651 10.2786 10.3516C10.2786 10.5104 10.2929 10.6419 10.3216 10.7461C10.3502 10.8503 10.4088 10.9518 10.4973 11.0508C10.5859 11.1471 10.7148 11.2331 10.8841 11.3086C11.0533 11.3815 11.2747 11.4518 11.5481 11.5195C11.6966 11.556 11.8255 11.5898 11.9348 11.6211C12.0468 11.6523 12.1692 11.6953 12.302 11.75C12.4374 11.8047 12.5533 11.8633 12.6497 11.9258C12.7486 11.9883 12.8463 12.0664 12.9427 12.1602C13.0416 12.2513 13.121 12.3529 13.1809 12.4648C13.2434 12.5768 13.2929 12.7096 13.3294 12.8633C13.3684 13.0143 13.388 13.1797 13.388 13.3594C13.388 13.599 13.3437 13.8203 13.2552 14.0234C13.1666 14.224 13.0507 14.3932 12.9075 14.5312C12.7643 14.6693 12.5989 14.7865 12.4114 14.8828C12.2239 14.9792 12.0338 15.0495 11.8411 15.0938C11.6484 15.138 11.457 15.1602 11.2669 15.1602C10.6888 15.1602 10.0729 15.0104 9.41922 14.7109C9.43224 14.4297 9.43875 14.2565 9.43875 14.1914C9.43875 13.7669 9.40359 13.3438 9.33328 12.9219C9.36193 12.9036 9.39057 12.8945 9.41922 12.8945C9.45568 12.8945 9.48823 12.9036 9.51688 12.9219C9.57156 13.2578 9.66141 13.5547 9.78641 13.8125C9.91401 14.0703 10.0598 14.2747 10.2239 14.4258C10.388 14.5742 10.5572 14.6862 10.7317 14.7617C10.9088 14.8346 11.0872 14.8711 11.2669 14.8711C11.6757 14.8711 11.9895 14.7656 12.2083 14.5547C12.4296 14.3411 12.5403 14.0599 12.5403 13.7109C12.5403 13.3594 12.4583 13.0951 12.2942 12.918C12.1328 12.7383 11.8229 12.5924 11.3645 12.4805C10.7916 12.3372 10.3437 12.1263 10.0208 11.8477C9.70047 11.5664 9.54031 11.1953 9.54031 10.7344C9.54031 10.4922 9.57938 10.276 9.6575 10.0859C9.73823 9.89323 9.84109 9.73958 9.96609 9.625C10.0937 9.50781 10.2421 9.41146 10.4114 9.33594C10.5807 9.25781 10.7473 9.20443 10.9114 9.17578C11.0781 9.14453 11.2473 9.12891 11.4192 9.12891C11.9348 9.12891 12.4713 9.2487 13.0286 9.48828C13.013 9.64193 13.0052 9.80208 13.0052 9.96875C13.0052 10.3594 13.0364 10.6732 13.0989 10.9102C13.0651 10.9232 13.0364 10.9297 13.013 10.9297C12.9869 10.9297 12.9544 10.9232 12.9153 10.9102ZM14.6041 9.25781C15.1926 9.27865 15.6653 9.28906 16.022 9.28906C16.509 9.28906 16.9491 9.27865 17.3423 9.25781C17.3528 9.29948 17.358 9.32812 17.358 9.34375C17.358 9.3724 17.3528 9.40495 17.3423 9.44141C17.0377 9.45443 16.8137 9.48177 16.6705 9.52344C16.5298 9.5651 16.4595 9.63281 16.4595 9.72656C16.4595 9.76042 16.4817 9.81901 16.5259 9.90234L17.7252 12.0547H17.7564L19.0689 9.87109C19.1002 9.81901 19.1158 9.76562 19.1158 9.71094C19.1158 9.63021 19.0637 9.57161 18.9595 9.53516C18.858 9.49609 18.7043 9.46484 18.4986 9.44141C18.4882 9.38411 18.483 9.34896 18.483 9.33594C18.483 9.3151 18.4882 9.28906 18.4986 9.25781C18.8345 9.27344 19.1392 9.28125 19.4127 9.28125C19.7069 9.28125 20.0025 9.27344 20.2994 9.25781C20.3098 9.28906 20.315 9.3151 20.315 9.33594C20.315 9.3776 20.3098 9.41276 20.2994 9.44141C20.1093 9.45964 19.9491 9.4987 19.8189 9.55859C19.6887 9.61849 19.5767 9.72266 19.483 9.87109L17.8619 12.4883C17.8619 13.0508 17.8749 13.7096 17.9009 14.4648C17.9035 14.5326 17.9335 14.5911 17.9908 14.6406C18.0481 14.6875 18.1301 14.724 18.2369 14.75C18.3463 14.776 18.4374 14.7956 18.5103 14.8086C18.5858 14.819 18.6835 14.8294 18.8033 14.8398C18.8137 14.8711 18.8189 14.9062 18.8189 14.9453C18.8189 14.9661 18.8137 14.9922 18.8033 15.0234C18.3658 15.0078 17.9127 15 17.4439 15C16.9778 15 16.5246 15.0078 16.0845 15.0234C16.0741 14.9922 16.0689 14.9661 16.0689 14.9453C16.0689 14.901 16.0741 14.8659 16.0845 14.8398C16.2043 14.8294 16.3007 14.819 16.3736 14.8086C16.4491 14.7956 16.5403 14.776 16.647 14.75C16.7564 14.724 16.8397 14.6875 16.897 14.6406C16.9543 14.5911 16.9843 14.5326 16.9869 14.4648C17.0129 13.8112 17.0298 13.1523 17.0377 12.4883L15.5103 9.81641C15.4088 9.6888 15.2838 9.59896 15.1353 9.54688C14.9869 9.49479 14.8098 9.45964 14.6041 9.44141C14.5936 9.39453 14.5884 9.36198 14.5884 9.34375C14.5884 9.31771 14.5936 9.28906 14.6041 9.25781Z" fill="black"/>
</svg>
